<?xml version="1.0" encoding="UTF-8"?><svg id="Layer_2" xmlns="http://www.w3.org/2000/svg" viewBox="0 0 356.38 356.38"><defs><style>.cls-1{fill:#f1e0ff;stroke-width:0px;}</style></defs><g id="Layer_1-2"><path class="cls-1" d="m347.82,240.63c-31.1-24.15-48.58-33.06-56.55-32.44,0,0-1.63-2.64,6.72-3.46,22.1-2.35,55.64,4.46,55.64,4.46,0,0-.34-14.96.36-30.99.97-22.43,2.39-30.99,2.39-30.99h-.05v.29c-39.01-5.37-58.6-4.34-65.19.18,0,0-2.73-1.47,4.09-6.36,13.46-9.55,50.4-24,50.4-24,0,0-7.78-12.79-15.19-27.02-10.37-19.91-13.43-28.04-13.43-28.04l-.06.02.17.3c-36.47,14.85-52.92,25.54-56.37,32.75,0,0-3.1.09.36-7.55,7.62-16,31.64-46.03,31.64-46.03,0,0-13.13-7.19-26.67-15.81-18.94-12.06-25.65-17.57-25.65-17.57l-.06.07.33.2c-24.15,31.1-33.06,48.58-32.44,56.55,0,0-2.64,1.63-3.46-6.72-1.5-16.82,4.38-53.86,4.38-53.86,0,0-13.86-2.19-30.99-3.41C156.05-.39,147.2.06,147.2.06v.07h.37c-5.37,39.01-4.34,58.6.17,65.19,0,0-1.47,2.73-6.36-4.09-8.31-12.04-23.15-48.88-23.15-48.88,0,0-13.1,5.04-28.55,12.54-19.98,9.7-27.41,14.52-27.41,14.52l.04.11.34-.18c14.85,36.46,25.54,52.92,32.75,56.37,0,0,.09,3.1-7.55-.36-12.12-5.4-44.49-30.8-44.49-30.8,0,0-8.83,10.91-18.45,25.14-12.45,18.39-16.48,26.28-16.48,26.28l.11.09.19-.31c31.1,24.15,48.58,33.06,56.55,32.44,0,0,1.63,2.64-6.72,3.46-12.02.67-53.94-4.47-53.94-4.47,0,0-2.19,13.86-3.41,30.99C-.4,200.34.06,209.19.06,209.19l.15.03v-.32c39.02,5.37,58.61,4.34,65.2-.18,0,0,2.73,1.47-4.09,6.36-9.21,5.61-48.96,23.07-48.96,23.07,0,0,5.04,13.1,12.54,28.55,9.7,19.98,14.52,27.41,14.52,27.41l.13-.05-.13-.25c36.47-14.85,52.92-25.54,56.37-32.75,0,0,3.1-.09-.36,7.55-6.42,12.73-30.88,44.42-30.88,44.42,0,0,10.91,8.83,25.14,18.45,18.39,12.45,26.28,16.48,26.28,16.48l.07-.09-.21-.13c24.15-31.1,33.06-48.58,32.44-56.55,0,0,2.64-1.63,3.46,6.72.32,16.08-4.54,55.72-4.54,55.72,0,0,14.96-.34,30.99.36,22.43.97,30.99,2.39,30.99,2.39l.02-.13h-.24c5.37-39.01,4.34-58.6-.17-65.2,0,0,1.47-2.73,6.36,4.09,8.18,11.82,23.92,50.48,23.92,50.48,0,0,12.79-7.78,27.02-15.19,19.91-10.37,28.04-13.43,28.04-13.43l-.03-.09-.21.12c-14.85-36.46-25.54-52.92-32.75-56.37,0,0-.09-3.1,7.55.36,18.36,9.83,45.94,31.72,45.94,31.72,0,0,7.19-13.13,15.81-26.67,12.06-18.94,17.57-25.65,17.57-25.65l-.05-.04-.14.23h0v.02Z"/></g></svg>