<?xml version="1.0" encoding="UTF-8"?>
<svg xmlns="http://www.w3.org/2000/svg" data-name="Layer 1" viewBox="0 0 800 350" width="640" height="280"><path fill="#fff" d="M404.22 156.72L355 150.25v18.27l41.86 3.34v39.76L355 208.28v28.45c-23.64-1.69-46.38-3.19-70.03-4.11V99.86c40.65 1.59 78.59 4.88 119.24 7.93v48.93zM551.71 114.36l-.24 47.82c-7.12-5.21-21-7.72-36.02-8.23-12.12-.41-17.13 6.79-17.13 12.57 41.19 1.77 58.93 13.52 58.75 39.45-.22 32.36-19.87 46.81-73.95 44.05-20.02-1.07-40.57-4.15-62.7-9.63l2.31-53.41c8.28 5.99 24.97 11.56 41.72 12.6 12.9.79 18.95-3.71 19.03-11.47-42.92-2.44-60.7-15.78-60.67-40.86.03-32.11 19.12-42.68 73.59-39.91 20.02.91 37.22 3.16 55.31 7.02zM647.18 182.54s25.97-3.9 52.82-10.27v57.52c-37.91 6.72-84.23 12.4-122.14 12.98v-132.2c24.26-1.08 46.71-4.04 70.96-7.41l-1.64 79.37zM197.27 231.18c-6.39-2.67-17.08-14.78-18.18-38.42l-12.02 1.13v41.25c-14.09 1.42-37.12 4.08-67.06 10.86V111.01c25.47-5.43 50.5-9.07 75.75-10.6 29.26-1.75 51.05-.87 63.92 6.79 21.77 13.11 23.2 49.83 10.2 61.93-9.22 8.62-22.98 13.6-22.98 13.61 0 5.43 20 7.96 32.53 1.14l-.24 50.66c-29.58 4.03-50.51 1.3-61.92-3.36zm-30.2-68.76s9.58-.1 18.03-.84c18.24-1.6 15.95-19.28 0-19.58-5.77-.11-13.52.44-18.03 1.26v19.17z"/></svg>
