<?xml version="1.0" encoding="UTF-8"?><svg id="Layer_2" xmlns="http://www.w3.org/2000/svg" viewBox="0 0 519.26 284.79"><defs><style>.cls-1{fill:#41284A;stroke-width:0px;}</style></defs><g id="Layer_1-2"><path class="cls-1" d="m6.18,275.49v-3.39C6.18,226.09.07,180.09,0,134.07c0-2.4.46-3.47,3.09-4.03,19.13-4,38.45-6.48,57.97-7.62,1.84-.11,3.68-.24,5.79-.39.14-2.85.26-5.57.41-8.29,1.23-20.95,6.43-40.84,17.63-58.65,11.84-18.83,28.05-33.16,48.39-42.56C151.23,4.23,170.06-.43,189.92.03c28.09.65,52.58,10.79,73.73,29.11,3.98,3.44,7.5,7.44,11.58,10.73,15.77,12.77,33.44,15.92,52.28,8.41,26.32-10.5,53.26-13.01,81.12-8.66,24.67,3.86,47.19,12.57,66.72,28.35,23.29,18.83,38.55,42.64,42.55,72.49,4.74,35.41-2.67,68.06-26.13,95.92-18.63,22.11-42.79,35.07-71,40.7-30.14,6.02-60.65,8.46-91.32,7.5-22.54-.7-45.08-2.19-67.54-4.12-25.23-2.16-50.4-5.2-75.58-7.92-27.69-2.99-55.4-5.45-83.26-6.04-31.8-.67-57.27,1.04-88.54,7.28-2.62.52-5.23,1.05-8.32,1.69h-.02v.02Z"/></g></svg>