<?xml version="1.0" encoding="UTF-8"?><svg id="Layer_2" xmlns="http://www.w3.org/2000/svg" viewBox="0 0 358.27 358.27"><defs><style>.cls-1{fill:#feffcd;stroke-width:0px;}</style></defs><g id="Layer_1-2"><path class="cls-1" d="m339.75,151.09c25.13,12.87,24.56,48.98-.95,61.07l-77.03,36.5c-6.78,3.21-12.3,8.57-15.72,15.24l-38.87,75.86c-12.87,25.12-48.98,24.56-61.07-.95l-36.5-77.03c-3.21-6.77-8.57-12.3-15.24-15.72l-75.86-38.87c-25.12-12.88-24.56-48.98.95-61.07l77.03-36.5c6.77-3.21,12.3-8.57,15.72-15.24l38.87-75.86c12.88-25.12,48.98-24.56,61.07.95l36.5,77.03c3.21,6.77,8.57,12.3,15.24,15.72l75.86,38.87Z"/></g></svg>